PathFileType	4	(X/Y/Z)	9_coords_data.trc
DataRate	CameraRate	NumFrames	NumMarkers	Units	OrigDataRate	OrigDataStartFrame	OrigNumFrames
30.0	30.0	6	21	m	30.0	1	50
Frame#	Time	THUMB_TIP	THUMB_IP	THUMB_MCP	THUMB_CMC	INDEX_TIP	INDEX_DIP	INDEX_PIP	INDEX_MCP	MIDDLE_TIP	MIDDLE_DIP	MIDDLE_PIP	MIDDLE_MCP	RING_TIP	RING_DIP	RING_PIP	RING_MCP	PINKY_TIP	PINKY_DIP	PINKY_PIP	PINKY_MCP	WRIST
X1	Y1	Z1	X2	Y2	Z2	X3	Y3	Z3	X4	Y4	Z4	X5	Y5	Z5	X6	Y6	Z6	X7	Y7	Z7	X8	Y8	Z8	X9	Y9	Z9	X10	Y10	Z10	X11	Y11	Z11	X12	Y12	Z12	X13	Y13	Z13	X14	Y14	Z14	X15	Y15	Z15	X16	Y16	Z16	X17	Y17	Z17	X18	Y18	Z18	X19	Y19	Z19	X20	Y20	Z20	X21	Y21	Z21
0	-2.749317978547796e-18	0.4985914798630219	-0.008635000998876263	-0.16643435503221415	0.4980525314190585	-0.01041589181094249	-0.14353156126179722	0.4865193727524737	-0.021212524420407664	-0.11671293013588746	0.48187224488092534	-0.026272261039588463	-0.07263693589990916	0.5351570823863335	-0.01980341592519197	-0.10237405283416845	0.5395616624533187	-0.006838713933557394	-0.11422800477863093	0.5348964019962056	0.012501087552743262	-0.1295973657392494	0.49311043442674773	0.014059730177060192	-0.12152645244186544	0.5207352383755872	-0.020539620320728758	-0.08633186582798769	0.5333912266762453	-0.009251550637011219	-0.09268839341379631	0.5394575525576674	0.014686659257459711	-0.10816648591089173	0.49679082994823687	0.027709305524175387	-0.10569476849542792	0.5170587364220691	-0.008675605461331393	-0.07970604655624924	0.5308779068732983	0.0024033863617201057	-0.08306558048592327	0.540144898812018	0.02442417870013791	-0.09009320769544338	0.5020395667713136	0.0374123632728709	-0.08635000511312263	0.5214362984010954	-0.010127119799728357	-0.07069273773592488	0.5353882995966862	-0.0005186419611502568	-0.06823941014593926	0.5392786745783171	0.02011302344850474	-0.06813271466172988	0.5066448977279774	0.03485574549838644	-0.06382316642065311	0.4622830810018609	-0.023011742144276925	-0.051989820119430985
1	0.03333333333333339	0.4981420885843597	-0.008575657153901295	-0.16690869868270786	0.497485655687066	-0.010775695675399266	-0.1440454328102373	0.48621544679154216	-0.021466606015841605	-0.11707309832573476	0.48156186797441813	-0.026108750430973493	-0.07295184834999324	0.5341593157394686	-0.019288486156393003	-0.10269567116315104	0.5389286338085288	-0.0064240914693903806	-0.11451772489730172	0.53443412874461	0.013101452246911505	-0.1297020062373324	0.4926098336139675	0.014074334912908437	-0.12173846869782701	0.520610195526753	-0.02026006165773442	-0.08698367880027758	0.5334918957754473	-0.009140928412048832	-0.09318260407547474	0.5393705974281207	0.015096354462255768	-0.10826254226333865	0.49664424355702874	0.027887852333563945	-0.10561978081164736	0.5166000085196913	-0.008659108108413527	-0.07949582528360633	0.5309392225087933	0.0017738511704542548	-0.08274240854300796	0.5398431476197243	0.023903002981391253	-0.08989787755261447	0.5019143322384356	0.03746441951048718	-0.08640305574077767	0.5210331098537868	-0.009504001675229579	-0.06987436585820372	0.5351035916719216	6.534539802172112e-05	-0.06801718035395388	0.5390402572190892	0.02068696725258412	-0.06776539580880603	0.5062898552731611	0.03518733445382294	-0.06351875308668031	0.46228308100186083	-0.023011742144276925	-0.051989820119430985
2	0.06666666666666676	0.4978406333156319	-0.008524262289000495	-0.167242524964481	0.49708428671637106	-0.011041126356504671	-0.14441505609280147	0.48599765253648586	-0.021655995732652644	-0.11733681592308742	0.48132693110996005	-0.02597530230517664	-0.0731846024781383	0.5334277696343339	-0.01887915911664151	-0.10293499998389455	0.5384579348984468	-0.006089382560458323	-0.11472987400011947	0.5340792503971377	0.013574625776662685	-0.12976861500977965	0.4922308985604926	0.014097615690120358	-0.12188965415781461	0.5205370436672149	-0.02003972273550947	-0.08748678117149589	0.5335740152434549	-0.009034388464211451	-0.09356296333608793	0.5393050274864699	0.015429744814077995	-0.10833019840608349	0.4965320581131736	0.02803526775117582	-0.10555138508501372	0.5162960938391771	-0.008653574041750267	-0.07932473170809884	0.5309914479664188	0.0012996358181021073	-0.08248387408550129	0.5396048773641529	0.023513002638921532	-0.08973336699838697	0.5018180620413412	0.03751185143364899	-0.08643039043442413	0.5207417245668992	-0.009012255558438986	-0.06925179348135901	0.5348865230954335	0.0005240049609654962	-0.06784310263762572	0.5388516463888163	0.021138339258351735	-0.06747022498493638	0.5060099112798662	0.03544565167821856	-0.06327442978570652	0.46228308100186094	-0.023011742144276925	-0.051989820119430985
3	0.10000000000000014	0.4976734059555612	-0.008466657263594524	-0.1674588521775764	0.4968322488951182	-0.011213172141975036	-0.1446608454484235	0.4858596071159743	-0.02177849644057317	-0.11751687641565212	0.4811622032844639	-0.02587009761343506	-0.07334580899493037	0.5329364559051701	-0.018568186924248997	-0.1030996101404732	0.5381361747714759	-0.005827361832457911	-0.11487391690103332	0.5338257119328599	0.013935204865076711	-0.12980277153366993	0.49196259443483253	0.01412867535459783	-0.12198752639893218	0.52050124460163	-0.0198738784841187	-0.0878528284037956	0.5336377745326601	-0.008936184226444599	-0.0938360069651284	0.5392587581743493	0.01569131061240636	-0.10837218909326052	0.49645080259310376	0.02815403169912234	-0.10548992556109749	0.5161136518980916	-0.008660615449319287	-0.07919090392101347	0.5310359969358138	0.0009689897335793951	-0.08228837427545665	0.5394299393713521	0.023245622736770777	-0.0896009204414645	0.5017477657858453	0.03755485677085013	-0.08643541112546349	0.520542401126852	-0.008644261939632525	-0.06879313901296358	0.5347326674788883	0.0008674460848262511	-0.06771436595262326	0.5387109746746974	0.02147722222627657	-0.06724296563963872	0.5058006410735573	0.03563753619375154	-0.06308617582005438	0.4622830810018609	-0.023011742144276925	-0.051989820119430985
4	0.13333333333333353	0.4976235487692094	-0.008395411177695156	-0.16757783230446133	0.49671053630925377	-0.011297951431575415	-0.1448019312614166	0.48579234061654486	-0.02183674449766415	-0.11762571291658674	0.4810604060399032	-0.025790727473470443	-0.07344579877238055	0.5326553027693539	-0.01834607472609151	-0.10319888295352508	0.5379462044214575	-0.005630320033046421	-0.11495966278711023	0.5336636878392056	0.014197392300924094	-0.1298099728284544	0.49179174001850356	0.014166182044275888	-0.12203983089794346	0.5204926483583548	-0.019757534327477955	-0.08809626811111015	0.5336842240982722	-0.008849344975047524	-0.09401181834329864	0.5392292113934586	0.01588686560038277	-0.1083917540964302	0.4963965491138392	0.028246959186543186	-0.10543556574292112	0.516025633391471	-0.008678257722082972	-0.07909173411371007	0.5310736153403959	0.0007661397660823077	-0.08215140653904662	0.5393144315366262	0.023088128834494737	-0.08949972141047269	0.5017001189513394	0.03759365399651016	-0.0864217249012994	0.520418992637523	-0.008388247551482042	-0.06847166320068243	0.5346355667348399	0.0011078151342893694	-0.06762678782324805	0.5386144820623822	0.021715551896103302	-0.06707775469852983	0.5056556170730424	0.03577068224322455	-0.06294859249053864	0.4622830810018609	-0.023011742144276925	-0.051989820119430985
5	0.1666666666666669	0.49767197823367937	-0.008308716054836407	-0.16761738476319687	0.49669817938103994	-0.011305988111260712	-0.14485627591467243	0.4857850559963334	-0.021837592204514977	-0.11767523374898037	0.48101280673683083	-0.025734367631897848	-0.07349457306725538	0.5325514008776377	-0.01820181374852403	-0.10324342656988161	0.5378681123849536	-0.005490259030842881	-0.1149971049476225	0.5335805654793588	0.014375049436379905	-0.12979562832106817	0.49170357403276566	0.014208496236506107	-0.12205444356590478	0.5205040007577327	-0.01968524780458336	-0.08823361929517093	0.5337150332121099	-0.00877574876481546	-0.09410315523855672	0.5392134131093764	0.016023279748285213	-0.10839250628441444	0.4963650282174233	0.028317126045699692	-0.10538831315370689	0.5160102018765342	-0.008703392450162495	-0.07902365681327195	0.53110446973403	0.0006724170284165831	-0.08206623375848732	0.5392513630280772	0.023024655386045922	-0.08942731717461072	0.501671550465705	0.03762848723657908	-0.08639307640329175	0.5203571772368247	-0.00822976234547168	-0.06826431657224796	0.5345871625788328	0.0012587847120848483	-0.06757512000901322	0.5385569047734455	0.021866645181531696	-0.0669674582773534	0.505566847990971	0.035853389988764306	-0.06285521142356854	0.46228308100186083	-0.023011742144276925	-0.051989820119430985
